<?xml version="1.0" encoding="UTF-8"?>
<svg width="13px" height="16px" viewBox="0 0 13 16" version="1.1" xmlns="http://www.w3.org/2000/svg" xmlns:xlink="http://www.w3.org/1999/xlink">
    <!-- Generator: Sketch 52.3 (67297) - http://www.bohemiancoding.com/sketch -->
    <title>attach-app</title>
    <desc>Created with Sketch.</desc>
    <g id="Page-1" stroke="none" stroke-width="1" fill="none" fill-rule="evenodd">
        <g id="One-Page-Template" transform="translate(-342.000000, -6823.000000)" fill="#FF5949">
            <g id="Group-54" transform="translate(0.000000, 6122.000000)">
                <g id="Group-52">
                    <g id="Group-57" transform="translate(265.000000, 91.000000)">
                        <g id="Group-51" transform="translate(0.000000, 193.000000)">
                            <g id="Group-45">
                                <g id="Group-41">
                                    <g id="Group-39" transform="translate(50.000000, 60.000000)">
                                        <g id="Group-38" transform="translate(0.000000, 339.000000)">
                                            <g id="Group-37" transform="translate(25.000000, 15.000000)">
                                                <g id="attach-app" transform="translate(0.000000, 2.000000)">
                                                    <path d="M13.5252525,5 L5.38383838,5 C2.96646465,5 1,6.92118421 1,9.28289474 C1,11.6446053 2.96646465,13.5657895 5.38383838,13.5657895 L11.6464646,13.5657895 C11.9921616,13.5657895 12.2727273,13.2916842 12.2727273,12.9539474 C12.2727273,12.6162105 11.9921616,12.3421053 11.6464646,12.3421053 L5.38383838,12.3421053 C3.65785859,12.3421053 2.25252525,10.9703553 2.25252525,9.28289474 C2.25252525,7.59543421 3.65785859,6.22368421 5.38383838,6.22368421 L13.5252525,6.22368421 C14.5610909,6.22368421 15.4040404,7.04722368 15.4040404,8.05921053 C15.4040404,9.07119737 14.5610909,9.89473684 13.5252525,9.89473684 L5.38383838,9.89473684 C5.03814141,9.89473684 4.75757576,9.61940789 4.75757576,9.28289474 C4.75757576,8.94638158 5.03814141,8.67105263 5.38383838,8.67105263 L11.6464646,8.67105263 C11.9921616,8.67105263 12.2727273,8.39694737 12.2727273,8.05921053 C12.2727273,7.72147368 11.9921616,7.44736842 11.6464646,7.44736842 L5.38383838,7.44736842 C4.348,7.44736842 3.50505051,8.27090789 3.50505051,9.28289474 C3.50505051,10.2948816 4.348,11.1184211 5.38383838,11.1184211 L13.5252525,11.1184211 C15.2512323,11.1184211 16.6565657,9.74667105 16.6565657,8.05921053 C16.6565657,6.37175 15.2512323,5 13.5252525,5 Z" id="Path" transform="translate(8.828283, 9.282895) rotate(-50.000000) translate(-8.828283, -9.282895) "></path>
                                                </g>
                                            </g>
                                        </g>
                                    </g>
                                </g>
                            </g>
                        </g>
                    </g>
                </g>
            </g>
        </g>
    </g>
</svg>