<?xml version="1.0" encoding="UTF-8"?>
<svg width="19px" height="24px" viewBox="0 0 19 24" version="1.1" xmlns="http://www.w3.org/2000/svg" xmlns:xlink="http://www.w3.org/1999/xlink">
    <!-- Generator: Sketch 52.3 (67297) - http://www.bohemiancoding.com/sketch -->
    <title>bx-anchor</title>
    <desc>Created with Sketch.</desc>
    <g id="Page-1" stroke="none" stroke-width="1" fill="none" fill-rule="evenodd">
        <g id="One-Page-Template" transform="translate(-841.000000, -3844.000000)" fill="#FFFFFF" fill-rule="nonzero">
            <g id="Group-99" transform="translate(0.000000, 3133.000000)">
                <g id="Group-16" transform="translate(0.000000, 263.000000)">
                    <g id="Group-18" transform="translate(566.000000, 390.000000)">
                        <g id="Group-21" transform="translate(105.000000, 41.000000)">
                            <g id="Group-20" transform="translate(150.000000, 0.000000)">
                                <g id="bx-anchor" transform="translate(20.000000, 17.000000)">
                                    <path d="M17.8125,13.2 L15.4375,13.2 L15.4375,15.6 L16.5216875,15.6 C16.005125,18.564 13.620625,20.9652 10.6875,21.4872 L10.6875,13.2 L13.0625,13.2 L13.0625,10.8 L10.6875,10.8 L10.6875,8.8032 C12.5198125,8.2524 13.910375,6.4956 13.910375,4.458 C13.910375,1.9992 11.932,0 9.5,0 C7.068,0 5.089625,1.9992 5.089625,4.458 C5.089625,6.4956 6.4801875,8.2524 8.3125,8.8032 L8.3125,10.8 L5.9375,10.8 L5.9375,13.2 L8.3125,13.2 L8.3125,21.4872 C5.379375,20.9652 2.9936875,18.564 2.4783125,15.6 L3.5625,15.6 L3.5625,13.2 L1.1875,13.2 C0.53166186,13.2 0,13.7372583 0,14.4 C0,19.1976 3.6990625,23.2992 8.3125,23.9124 L8.3125,24 L10.6875,24 L10.6875,23.9124 C15.3009375,23.2992 19,19.1976 19,14.4 C19,13.7372583 18.4683381,13.2 17.8125,13.2 Z M7.464625,4.458 C7.464625,3.324 8.3778125,2.4 9.5,2.4 C10.6221875,2.4 11.535375,3.324 11.535375,4.458 C11.535375,5.5992 10.5841875,6.6 9.5,6.6 C8.4158125,6.6 7.464625,5.5992 7.464625,4.458 Z" id="Shape"></path>
                                </g>
                            </g>
                        </g>
                    </g>
                </g>
            </g>
        </g>
    </g>
</svg>