<?xml version="1.0" encoding="UTF-8"?>
<svg width="15px" height="12px" viewBox="0 0 15 12" version="1.1" xmlns="http://www.w3.org/2000/svg" xmlns:xlink="http://www.w3.org/1999/xlink">
    <!-- Generator: Sketch 52.3 (67297) - http://www.bohemiancoding.com/sketch -->
    <title>bxl-twitter</title>
    <desc>Created with Sketch.</desc>
    <g id="Page-1" stroke="none" stroke-width="1" fill="none" fill-rule="evenodd">
        <g id="One-Page-Template" transform="translate(-613.000000, -5530.000000)" fill="#182D38">
            <g id="Group-108" transform="translate(171.000000, 5113.000000)">
                <g id="Group-107" transform="translate(0.000000, 185.000000)">
                    <g id="Group-106">
                        <g id="Group-33">
                            <g id="Group-32" transform="translate(319.000000, 60.000000)">
                                <g id="Group-31" transform="translate(0.000000, 158.000000)">
                                    <g id="Group-29" transform="translate(110.000000, 0.000000)">
                                        <g id="bxl-twitter" transform="translate(13.000000, 14.000000)">
                                            <path d="M13.22475,2.99775 C13.2345,3.129 13.2345,3.2595 13.2345,3.39 C13.2345,7.38375 10.19475,11.98575 4.6395,11.98575 C2.928,11.98575 1.338,11.49 0,10.629 C0.243,10.65675 0.477,10.6665 0.72975,10.6665 C2.142,10.6665 3.44175,10.1895 4.4805,9.37575 C3.15225,9.348 2.03925,8.478 1.65525,7.281 C1.842,7.30875 2.0295,7.3275 2.226,7.3275 C2.49675,7.3275 2.769,7.29 3.02175,7.22475 C1.6365,6.94425 0.59925,5.7285 0.59925,4.26 L0.59925,4.2225 C1.002,4.44675 1.46925,4.587 1.96425,4.60575 C1.1505,4.06425 0.61725,3.138 0.61725,2.09025 C0.61725,1.52925 0.7665,1.01475 1.02825,0.56625 C2.5155,2.3985 4.75125,3.59625 7.25775,3.7275 C7.21125,3.5025 7.18275,3.26925 7.18275,3.03525 C7.18275,1.37025 8.52975,0.01425 10.20375,0.01425 C11.07375,0.01425 11.859,0.37875 12.411,0.96825 C13.0935,0.837 13.7475,0.58425 14.328,0.2385 C14.10375,0.93975 13.626,1.52925 12.99975,1.9035 C13.608,1.8375 14.1975,1.6695 14.739,1.4355 C14.328,2.034 13.81425,2.56725 13.22475,2.99775 Z" id="Path"></path>
                                        </g>
                                    </g>
                                </g>
                            </g>
                        </g>
                    </g>
                </g>
            </g>
        </g>
    </g>
</svg>