<?xml version="1.0" encoding="UTF-8"?>
<svg width="8px" height="14px" viewBox="0 0 8 14" version="1.1" xmlns="http://www.w3.org/2000/svg" xmlns:xlink="http://www.w3.org/1999/xlink">
    <!-- Generator: Sketch 52.3 (67297) - http://www.bohemiancoding.com/sketch -->
    <title>bxl-facebook</title>
    <desc>Created with Sketch.</desc>
    <g id="Page-1" stroke="none" stroke-width="1" fill="none" fill-rule="evenodd">
        <g id="One-Page-Template" transform="translate(-561.000000, -5529.000000)" fill="#182D38">
            <g id="Group-108" transform="translate(171.000000, 5113.000000)">
                <g id="Group-107" transform="translate(0.000000, 185.000000)">
                    <g id="Group-106">
                        <g id="Group-33">
                            <g id="Group-32" transform="translate(319.000000, 60.000000)">
                                <g id="Group-31" transform="translate(0.000000, 158.000000)">
                                    <g id="Group-28" transform="translate(55.000000, 0.000000)">
                                        <g id="bxl-facebook" transform="translate(16.000000, 13.000000)">
                                            <path d="M5.1176,13.9976667 L5.1176,7.623 L7.3296,7.623 L7.6584,5.12711111 L5.1176,5.12711111 L5.1176,3.53733333 C5.1176,2.81711111 5.324,2.324 6.3872,2.324 L7.7344,2.324 L7.7344,0.0987777778 C7.0792,0.0303333333 6.42,-0.00233333333 5.7608,-8.13151629e-20 C3.8056,-8.13151629e-20 2.4632,1.16044444 2.4632,3.29077778 L2.4632,5.12244444 L0.2656,5.12244444 L0.2656,7.61833333 L2.468,7.61833333 L2.468,13.9976667 L5.1176,13.9976667 Z" id="Path"></path>
                                        </g>
                                    </g>
                                </g>
                            </g>
                        </g>
                    </g>
                </g>
            </g>
        </g>
    </g>
</svg>