<?xml version="1.0" encoding="UTF-8"?>
<svg width="12px" height="12px" viewBox="0 0 12 12" version="1.1" xmlns="http://www.w3.org/2000/svg" xmlns:xlink="http://www.w3.org/1999/xlink">
    <!-- Generator: Sketch 52.3 (67297) - http://www.bohemiancoding.com/sketch -->
    <title>Group 40</title>
    <desc>Created with Sketch.</desc>
    <g id="Page-1" stroke="none" stroke-width="1" fill="none" fill-rule="evenodd">
        <g id="One-Page-Template" transform="translate(-504.000000, -5530.000000)" fill="#182D38" fill-rule="nonzero">
            <g id="Group-108" transform="translate(171.000000, 5113.000000)">
                <g id="Group-107" transform="translate(0.000000, 185.000000)">
                    <g id="Group-106">
                        <g id="Group-33">
                            <g id="Group-32" transform="translate(319.000000, 60.000000)">
                                <g id="Group-31" transform="translate(0.000000, 158.000000)">
                                    <g id="Group-27">
                                        <g id="Group-40" transform="translate(14.000000, 14.000000)">
                                            <g id="linkedin">
                                                <circle id="Oval" cx="1.5" cy="1.5" r="1.5"></circle>
                                                <path d="M2.75,4 L0.25,4 C0.112,4 0,4.112 0,4.25 L0,11.75 C0,11.888 0.112,12 0.25,12 L2.75,12 C2.888,12 3,11.888 3,11.75 L3,4.25 C3,4.112 2.888,4 2.75,4 Z" id="Shape"></path>
                                                <path d="M10.1985,3.6555 C9.13,3.2895 7.7935,3.611 6.992,4.1875 C6.9645,4.08 6.8665,4 6.75,4 L4.25,4 C4.112,4 4,4.112 4,4.25 L4,11.75 C4,11.888 4.112,12 4.25,12 L6.75,12 C6.888,12 7,11.888 7,11.75 L7,6.36 C7.404,6.012 7.9245,5.901 8.3505,6.082 C8.7635,6.2565 9,6.6825 9,7.25 L9,11.75 C9,11.888 9.112,12 9.25,12 L11.75,12 C11.888,12 12,11.888 12,11.75 L12,6.7465 C11.9715,4.692 11.005,3.9315 10.1985,3.6555 Z" id="Shape"></path>
                                            </g>
                                        </g>
                                    </g>
                                </g>
                            </g>
                        </g>
                    </g>
                </g>
            </g>
        </g>
    </g>
</svg>