<?xml version="1.0" encoding="UTF-8"?>
<svg width="24px" height="24px" viewBox="0 0 24 24" version="1.1" xmlns="http://www.w3.org/2000/svg" xmlns:xlink="http://www.w3.org/1999/xlink">
    <!-- Generator: Sketch 52.3 (67297) - http://www.bohemiancoding.com/sketch -->
    <title>noun_send_2261688</title>
    <desc>Created with Sketch.</desc>
    <g id="Page-1" stroke="none" stroke-width="1" fill="none" fill-rule="evenodd">
        <g id="One-Page-Template" transform="translate(-807.000000, -7028.000000)" fill="#FFFFFF" fill-rule="nonzero">
            <g id="Group-54" transform="translate(0.000000, 6122.000000)">
                <g id="Group-52">
                    <g id="Group-57" transform="translate(265.000000, 91.000000)">
                        <g id="Group-51" transform="translate(0.000000, 193.000000)">
                            <g id="Group-45">
                                <g id="Group-44" transform="translate(373.000000, 602.000000)">
                                    <g id="Group-42" transform="translate(152.000000, 0.000000)">
                                        <g id="noun_send_2261688" transform="translate(17.000000, 20.000000)">
                                            <path d="M22.9357872,0.261049108 C22.6827064,0.00835988584 22.3032616,-0.0689344238 21.9715015,0.0646205366 L0.542930037,8.90390625 C0.21368599,9.04416363 0,9.36746086 0,9.72533482 C0,10.0832088 0.21368599,10.406506 0.542930037,10.5467634 L9.06078718,14.118192 L12.6322158,22.6360491 C12.7746739,22.9624676 13.0974957,23.1730036 13.4536443,23.1717634 C13.8140924,23.1699642 14.1381054,22.9516076 14.2750729,22.618192 L23.1143586,1.18962054 C23.2370751,0.871395753 23.1677799,0.511060596 22.9357872,0.261049108 Z M3.11435861,9.76104911 L18.4893586,3.43962054 L9.45364432,12.4753348 L3.11435861,9.76104911 Z M13.4357872,20.0824777 L10.7215015,13.743192 L19.7572158,4.70747768 L13.4357872,20.0824777 Z" id="Shape"></path>
                                        </g>
                                    </g>
                                </g>
                            </g>
                        </g>
                    </g>
                </g>
            </g>
        </g>
    </g>
</svg>